<svg width="26" height="36" viewBox="0 0 26 36" fill="none" xmlns="http://www.w3.org/2000/svg">
<path d="M14.7856 23.4996C13.9423 23.4996 12.2838 23.892 12.3962 25.4615C12.5087 27.031 13.099 27.7036 14.2234 27.4234C15.2541 27.0497 17.2593 25.8539 17.0344 24.0602C16.7533 21.8181 15.7694 20.2766 13.3801 20.4167C12.3979 20.4743 8.74194 21.5378 8.88249 25.4615C9.02304 29.3852 11.9746 30.9267 14.2234 30.7865C16.0224 30.6744 18.8615 28.8247 19.7048 25.7418M19.7048 25.7418L21.1103 13.4101L21.6725 7.24428C21.9536 5.28242 19.227 2.53583 17.8777 6.68375C16.5284 10.8317 16.0974 14.1108 16.0505 15.2318L16.6127 2.05938C16.1911 0.237657 13.6612 -0.463006 12.9584 2.61991C12.2492 5.73116 11.8809 12.289 11.9746 15.2318L9.72579 4.02123C8.88249 2.05938 6.35259 2.76004 6.35259 4.58176C6.35259 6.43745 6.02464 14.0641 6.35259 17.7542L3.29502 13.5502C2.17063 12.0088 -0.0500677 13.4101 0.624573 16.2128C1.29921 19.0154 4.33804 27.3299 5.79039 31.2069C6.44629 32.655 8.32029 35.523 10.5691 35.4109C12.8179 35.2988 16.0505 35.8313 17.8777 35.1306C19.3769 34.103 22.4596 31.4592 22.7969 29.1049C23.1343 26.7507 24.7178 19.4358 25.4674 16.0726C25.811 14.5312 23.3097 11.2988 21.9536 14.391C20.6631 17.3338 19.7048 22.3786 19.7048 25.7418Z" stroke="black" stroke-linecap="round" stroke-linejoin="round"/>
</svg>
